<svg width="1136" height="1272.573" xmlns="http://www.w3.org/2000/svg">
    <path d="M0 0c23.816 13.75 43.302 47.5 43.302 75v391.902c0 27.5-19.486 61.25-43.302 75l-339.397 195.952c-23.816 13.75-62.787 13.75-86.603 0l-339.397-195.952c-23.816-13.75-43.301-47.5-43.301-75V75c0-27.5 19.485-61.25 43.301-75L-426-195.951c23.816-13.75 62.787-13.75 86.603 0z" style="display:inline;fill:#dc143c;fill-opacity:1;fill-rule:nonzero;stroke:none" transform="matrix(1.33333 0 0 -1.33333 1078.264 997.555)"/>
    <path d="M0 0c23.815 13.75 43.302 47.5 43.302 75v302.85c0 27.5-19.487 61.25-43.302 75l-262.275 151.424c-23.816 13.75-62.787 13.75-86.602 0L-611.152 452.85c-23.816-13.75-43.302-47.5-43.302-75V75c0-27.5 19.486-61.25 43.302-75l262.275-151.424c23.815-13.75 62.786-13.75 86.602 0z" style="display:inline;fill:#af143c;fill-opacity:1;fill-rule:nonzero;stroke:none" transform="matrix(1.33333 0 0 -1.33333 975.435 938.187)"/>
    <path d="M0 0c-43.336 0-76.273 10.725-98.8 32.175-22.536 21.45-36.186 50.589-40.95 87.425-2.6 21.226 7.15 31.85 29.25 31.85 9.1 0 15.925-2.387 20.475-7.15 4.55-4.774 8.338-12.137 11.375-22.1C-71.723 79.727-45.5 58.5 0 58.5c27.727 0 48.313 7.576 61.75 22.75 13.427 15.163 20.15 38.563 20.15 70.2v282.1c0 9.963 2.702 17.652 8.125 23.075 5.413 5.413 12.889 8.125 22.425 8.125 19.927 0 29.9-10.4 29.9-31.2v-282.1c0-45.936-11.162-82.662-33.475-110.175C86.552 13.752 50.264 0 0 0" style="display:inline;fill:#fff;fill-opacity:1;fill-rule:nonzero;stroke:none" transform="matrix(1.33333 0 0 -1.33333 548.504 949.488)"/>
</svg>
