<svg xmlns="http://www.w3.org/2000/svg" width="3440" height="1440" preserveAspectRatio="none">
    <g mask="url(&quot;#a&quot;)" fill="none">
        <path fill="rgba(18, 18, 18, 1)" d="M0 0h3440v1440H0z"/>
        <path d="m-39.67 974.56-62.02 118.62M-39.67 974.56l145.85 5.29M-39.67 974.56l110.24 185.5M-39.67 974.56l256.59-7M-39.67 974.56l230.41 166.12M-55.82 1273.42l119.2-28.58M-55.82 1273.42 59.29 1394.8M-55.82 1273.42l126.39-113.36M-45.71 1603.95l117.79-44.59M-45.71 1603.95l105-209.15M-45.71 1603.95l245.43 1.66M-45.71 1603.95l235.12-168.99M-45.71 1603.95l-10.11-330.53M-45.71 1603.95l109.09-359.11M106.18 979.85l110.74-12.29M106.18 979.85l84.56 160.83M106.18 979.85l-35.61 180.21M106.18 979.85l-207.87 113.33M70.57 1160.06l-7.19 84.78M70.57 1160.06l120.17-19.38M70.57 1160.06l-172.26-66.88M70.57 1160.06l164.7 134.37M63.38 1244.84l-4.09 149.96M63.38 1244.84l127.36-104.16M59.29 1394.8l130.12 40.16M59.29 1394.8l12.79 164.56M72.08 1559.36l127.64 46.25M72.08 1559.36l117.33-124.4M72.08 1559.36l268.09-14.63M216.92 967.56l-26.18 173.12M190.74 1140.68l150.74-35.72M190.74 1140.68l44.53 153.75M235.27 1294.43l118.72 9.22M235.27 1294.43l-45.86 140.53M235.27 1294.43l-171.89-49.59M189.41 1434.96l10.31 170.65M199.72 1605.61l140.45-60.88M402.91 1000.66l103.76-25.02M402.91 1000.66l-61.43 104.3M341.48 1104.96l157.67 49.9M341.48 1104.96l-124.56-137.4M341.48 1104.96l12.51 198.69M341.48 1104.96l165.19-129.32M353.99 1303.65l180.19-8.84M353.99 1303.65l145.16-148.79M353.99 1303.65l-164.58 131.31M340.17 1544.73l172.27 5.61M340.17 1544.73l-150.76-109.77M506.67 975.64l136.92-21.87M506.67 975.64l-7.52 179.22M506.67 975.64l151.94 177.51M499.15 1154.86l35.03 139.95M499.15 1154.86l159.46-1.71M499.15 1154.86l-96.24-154.2M534.18 1294.81l120.64-33.84M534.18 1294.81l117.83 105.96M512.44 1550.34l157.91-7.81M512.44 1550.34l139.57-149.57M643.59 953.77l15.02 199.38M658.61 1153.15l-3.79 107.82M654.82 1260.97l-2.81 139.8M652.01 1400.77l135.59-12.61M670.35 1542.53l-18.34-141.76M670.35 1542.53l144.89.88M670.35 1542.53l117.25-154.37M841.75 791.61l140.59 36.42M841.75 791.61l15.71 172.89M841.75 791.61 990.11 951.5M841.75 791.61 643.59 953.77M857.46 964.5l132.65-13M857.46 964.5l124.88-136.47M802.59 1290.88l-14.99 97.28M802.59 1290.88l-147.77-29.91M802.59 1290.88l-150.58 109.89M802.59 1290.88l-143.98-137.73M787.6 1388.16l27.64 155.25M787.6 1388.16l-132.78-127.19M787.6 1388.16l192.89 61M815.24 1543.41l162.04 23.62M982.34 828.03l7.77 123.47M982.34 828.03l134.99-22.34M982.34 828.03l164.1 171.27M982.34 828.03l321.23-4.32M990.11 951.5l156.33 47.8M958.77 1156.47l185.02-33.95M958.77 1156.47l-156.18 134.41M958.77 1156.47l31.34-204.97M958.77 1156.47 857.46 964.5M958.77 1156.47l187.67-157.17M958.77 1156.47l201.15 148.88M980.49 1449.16l-3.21 117.87M980.49 1449.16l136.32-23.07M977.28 1567.03l144.59-18M1117.33 805.69l186.24 18.02M1117.33 805.69 990.11 951.5M1117.33 805.69l29.11 193.61M1117.33 805.69l190.47 143.37M1146.44 999.3l-2.65 123.22M1146.44 999.3l161.36-50.24M1146.44 999.3l149.71 100.43M1143.79 1122.52l152.36-22.79M1143.79 1122.52l16.13 182.83M1143.79 1122.52l114.6 152.05M1143.79 1122.52 990.11 951.5M1159.92 1305.35l98.47-30.78M1159.92 1305.35l-43.11 120.74M1159.92 1305.35l126.1 83.42M1116.81 1426.09l5.06 122.94M1116.81 1426.09l169.21-37.32M1116.81 1426.09l-139.53 140.94M1116.81 1426.09l141.58-151.52M1303.57 823.71l4.23 125.35M1303.57 823.71l110.21-153.59M1303.57 823.71l150.63 168.77M1303.57 823.71 1146.44 999.3M1307.8 949.06l-11.65 150.67M1296.15 1099.73l139.82 24.84M1286.02 1388.77l-27.63-114.2M1286.02 1388.77l130.13 11.05M1286.02 1388.77l18.06 171.5M1304.08 1560.27l127.81 38.16M1304.08 1560.27l-182.21-11.24M1304.08 1560.27l112.07-160.45M1304.08 1560.27l-187.27-134.18M1413.78 670.12l180.39-23.44M1413.78 670.12l187.77 130.3M1413.78 670.12l284.68 29.98M1454.2 992.48l104.62-18.62M1454.2 992.48l-18.23 132.09M1454.2 992.48l-146.4-43.42M1454.2 992.48l136.44 126.09M1454.2 992.48l-158.05 107.25M1435.97 1124.57l14.89 131.88M1435.97 1124.57l154.67-6M1435.97 1124.57l122.85-150.71M1450.86 1256.45l89.63 45.59M1450.86 1256.45l-34.71 143.37M1416.15 1399.82l124.34-97.78M1416.15 1399.82l167.8-9.31M1431.89 1598.43l130.56-32.09M1431.89 1598.43l-15.74-198.61M1431.89 1598.43l-145.87-209.66M1594.17 646.68l104.29 53.42M1594.17 646.68l7.38 153.74M1594.17 646.68l111.18-127.5M1594.17 646.68l97.04 141.72M1601.55 800.42l89.66-12.02M1601.55 800.42l96.91-100.32M1601.55 800.42l92.48 150.19M1601.55 800.42l-42.73 173.44M1558.82 973.86l135.21-23.25M1590.64 1118.57l-31.82-144.71M1540.49 1302.04l43.46 88.47M1540.49 1302.04l154.35 90.41M1583.95 1390.51l110.89 1.94M1583.95 1390.51l-21.5 175.83M1583.95 1390.51l-133.09-134.06M1562.45 1566.34l186.16-11.23M1705.35 519.18l136.76 18.16M1705.35 519.18l-6.89 180.92M1698.46 700.1l-7.25 88.3M1691.21 788.4l2.82 162.21M1694.03 950.61l169.98 56.23M1694.03 950.61l-103.39 167.96M1758.85 1143.11l-49.01 99.85M1758.85 1143.11l110.11-21.17M1758.85 1143.11l87.21 132.48M1758.85 1143.11l-168.21-24.54M1709.84 1242.96l136.22 32.63M1709.84 1242.96l-15 149.49M1709.84 1242.96l-119.2-124.39M1694.84 1392.45l53.77 162.66M1748.61 1555.11l126.81 54.38M1842.11 537.34l11.74 116.69M1842.11 537.34l154.1 13.68M1842.11 537.34 1698.46 700.1M1842.11 537.34l193.97 104.1M1853.85 654.03l13.4 145.16M1853.85 654.03l-155.39 46.07M1853.85 654.03l142.36-103.01M1867.25 799.19l-176.04-10.79M1867.25 799.19l-168.79-99.09M1867.25 799.19l190.99 48.04M1867.25 799.19l-3.24 207.65M1867.25 799.19l-173.22 151.42M1864.01 1006.84l4.95 115.1M1864.01 1006.84l149.66-4.89M1868.96 1121.94l-22.9 153.65M1868.96 1121.94l157.68 33.04M1868.96 1121.94l144.71-119.99M1901.83 1421.49l-55.77-145.9M1901.83 1421.49l156.35-21.73M1901.83 1421.49l117.05 127.75M1901.83 1421.49l-26.41 188M1901.83 1421.49l-153.22 133.62M1901.83 1421.49l-206.99-29.04M1875.42 1609.49l143.46-60.25M2036.04 191.29l161.83 34.44M2036.04 191.29l-4.53 180.35M2036.04 191.29l174.04-123.3M2036.04 191.29l151.27 171.11M2036.04 191.29l306.47-.5M2031.51 371.64l155.8-9.24M2031.51 371.64l-35.3 179.38M2031.51 371.64l166.36-145.91M2031.51 371.64l169.11 144.3M1996.21 551.02l39.87 90.42M1996.21 551.02l204.41-35.08M1996.21 551.02l187.1 119.96M2036.08 641.44l147.23 29.54M2058.24 847.23l85.9-36.76M2058.24 847.23l-44.57 154.72M2058.24 847.23l133.72 155.69M2013.67 1001.95l12.97 153.03M2026.64 1154.98l33.61 94.35M2026.64 1154.98l119.84-30.53M2060.25 1249.33l113.87 14.93M2060.25 1249.33l-2.07 150.43M2060.25 1249.33l86.23-124.88M2058.18 1399.76l99.75 13.74M2058.18 1399.76l-39.3 149.48M2058.18 1399.76l115.94-135.5M2191.86-80.8l18.22 148.79M2191.86-80.8l158.04 21.98M2191.86-80.8l166.55 119.26M2197.87 225.73l-10.56 136.67M2197.87 225.73l144.64-34.94M2197.87 225.73l12.21-157.74M2187.31 362.4l13.31 153.54M2200.62 515.94l145.94-2.67M2183.31 670.98l108.09 41.15M2183.31 670.98l-39.17 139.49M2191.96 1002.92l97.03 8.02M2191.96 1002.92l-45.48 121.53M2191.96 1002.92l128.19 121.68M2191.96 1002.92l-178.29-.97M2146.48 1124.45l27.64 139.81M2146.48 1124.45l173.67.15M2174.12 1264.26l-16.19 149.24M2174.12 1264.26l-147.48-109.28M2174.12 1264.26l146.03-139.66M2157.93 1413.5l188.68-14.25M2157.93 1413.5l-97.68-164.17M2349.9-58.82l8.51 97.28M2349.9-58.82l158 5.79M2349.9-58.82l149.27 103.46M2349.9-58.82 2210.08 67.99M2349.9-58.82l247.27-18.62M2358.41 38.46l140.76 6.18M2358.41 38.46l-148.33 29.53M2358.41 38.46l-15.9 152.33M2358.41 38.46l149.49-91.49M2342.51 190.79l123.95 42.24M2362.44 394.02l106.95-32.1M2362.44 394.02l-15.88 119.25M2346.56 513.27l121.51-9.81M2291.4 712.13l56.5 98.32M2291.4 712.13l-147.26 98.34M2291.4 712.13l55.16-198.86M2291.4 712.13l173.27 115.96M2347.9 810.45l116.77 17.64M2347.9 810.45l-203.76.02M2347.9 810.45l-58.91 200.49M2288.99 1010.94l31.16 113.66M2288.99 1010.94l167.98-3.05M2320.15 1124.6l164.31 35.24M2320.15 1124.6l136.82-116.71M2346.61 1399.25l100.62 11.36M2346.61 1399.25l99.52-97.49M2346.61 1399.25l-44.92 180.46M2346.61 1399.25l102.94 155.63M2346.61 1399.25l-172.49-134.99M2301.69 1579.71l147.86-24.83M2301.69 1579.71l-143.76-166.21M2301.69 1579.71l145.54-169.1M2507.9-53.03l89.27-24.41M2507.9-53.03l-8.73 97.67M2499.17 44.64l108.79 34.59M2499.17 44.64l98-122.08M2499.17 44.64l-32.71 188.39M2466.46 233.03l2.93 128.89M2466.46 233.03l179.91 8.33M2466.46 233.03l-104.02 160.99M2469.39 361.92l-1.32 141.54M2468.07 503.46l126.37-10.68M2468.07 503.46l-105.63-109.44M2468.07 503.46l36.57 152.7M2468.07 503.46l180.65-163.98M2504.64 656.16l-39.97 171.93M2504.64 656.16l89.8-163.38M2504.64 656.16l-158.08-142.89M2464.67 828.09l169.62 32.52M2464.67 828.09l-7.7 179.8M2456.97 1007.89l27.49 151.95M2484.46 1159.84l-38.33 141.92M2484.46 1159.84l164.51-16.94M2446.13 1301.76l1.1 108.85M2447.23 1410.61l2.32 144.27M2597.17-77.44l10.79 156.67M2597.17-77.44l157.89-9.57M2597.17-77.44l205.75 119.56M2607.96 79.23 2507.9-53.03M2607.96 79.23l38.41 162.13M2607.96 79.23l194.96-37.11M2607.96 79.23l146.41 141.36M2646.37 241.36l2.35 98.12M2646.37 241.36l108-20.77M2646.37 241.36l155.45 144.48M2646.37 241.36l-176.98 120.56M2648.72 339.48l105.65-118.89M2648.72 339.48l153.1 46.36M2594.44 492.78l54.28-153.3M2594.44 492.78l163.11 25.85M2594.44 492.78l-125.05-130.86M2634.29 860.61l8.42 138.52M2634.29 860.61l163.94-61.01M2634.29 860.61l149.79 101.06M2642.71 999.13l6.26 143.77M2642.71 999.13l141.37-37.46M2642.71 999.13l-185.74 8.76M2642.71 999.13l-158.25 160.71M2642.71 999.13l168.51 158.37M2648.97 1142.9 2633 1250.52M2648.97 1142.9l162.25 14.6M2633 1250.52l-148.54-90.68M2633 1250.52l174.05 41.07M2597.43 1432.58l5.9 149.85M2603.33 1582.43l141.39 12.24M2603.33 1582.43l-153.78-27.55M2603.33 1582.43l-156.1-171.82M2603.33 1582.43l200.09-132.83M2603.33 1582.43l-301.64-2.72M2755.06-87.01l47.86 129.13M2755.06-87.01l-147.1 166.24M2755.06-87.01 2507.9-53.03M2802.92 42.12l-48.55 178.47M2802.92 42.12l85.1 195.2M2754.37 220.59l133.65 16.73M2801.82 385.84l104.95-22.26M2801.82 385.84l-44.27 132.79M2757.55 518.63l23.2 136.84M2757.55 518.63l140.5-28.04M2757.55 518.63l-108.83-179.15M2780.75 655.47l17.48 144.13M2798.23 799.6l141.09-2.91M2798.23 799.6l-14.15 162.07M2798.23 799.6l133.39 145.75M2798.23 799.6l136.01-156.09M2784.08 961.67l147.54-16.32M2811.22 1157.5l101.54-17.02M2811.22 1157.5l-4.17 134.09M2811.22 1157.5l120.11 89.23M2811.22 1157.5l-27.14-195.83M2811.22 1157.5 2633 1250.52M2807.05 1291.59l124.28-44.86M2807.05 1291.59l-3.63 158.01M2807.05 1291.59l98.11 127.41M2803.42 1449.6l101.74-30.6M2803.42 1449.6l-58.7 145.07M2744.72 1594.67l176.92 9.93M2744.72 1594.67l-147.29-162.09M2888.02 237.32l18.75 126.26M2906.77 363.58l-8.72 127.01M2906.77 363.58l149.32-18.09M2906.77 363.58l-152.4-142.99M2898.05 490.59l-96.23-104.75M2934.24 643.51l118.82 3.77M2934.24 643.51l5.08 153.18M2934.24 643.51l-153.49 11.96M2934.24 643.51 3048.5 537M2934.24 643.51l-36.19-152.92M2939.32 796.69l-7.7 148.66M2931.62 945.35l128.78 45.78M2912.76 1140.48l18.57 106.25M2931.33 1246.73l115.44-6.66M2905.16 1419l140.95 40.85M2921.64 1604.6l-16.48-185.6M3072.82-56.6l182.61 104.27M3072.82-56.6l272.44 8.36M3072.82-56.6l7.35 282.6M3072.82-56.6l-269.9 98.72M3080.17 226l-24.08 119.49M3080.17 226l176.24-14.87M3080.17 226l-192.15 11.32M3080.17 226l-173.4 137.58M3056.09 345.49 3048.5 537M3056.09 345.49l189.11 63.85M3056.09 345.49l-168.07-108.17M3056.09 345.49l-158.04 145.1M3048.5 537l4.56 110.28M3048.5 537l-150.45-46.41M3048.5 537l208.88-22.38M3060.4 991.13l144.77-48.08M3060.4 991.13l26.24 166.06M3086.64 1157.19l-39.87 82.88M3046.77 1240.07l143.65 68.14M3046.11 1459.85l159.2-63.95M3255.43 47.67l89.83-95.91M3255.43 47.67l133.3 39.04M3255.43 47.67l.98 163.46M3255.43 47.67l86.77 195.78M3255.43 47.67 3080.17 226M3256.41 211.13l85.79 32.32M3245.2 409.34l12.18 105.28M3245.2 409.34l148.39-60.65M3245.2 409.34l95.12 145.47M3245.2 409.34l97-165.89M3257.38 514.62l82.94 40.19M3257.38 514.62l-.62 167.94M3256.76 682.56l103.81-18.83M3195.71 803.74l61.05-121.18M3195.71 803.74l9.46 139.31M3205.17 943.05l153.97-80.78M3205.17 943.05l27.53 178.37M3205.17 943.05l191.12 4.29M3205.17 943.05l-118.53 214.14M3232.7 1121.42l-146.06 35.77M3232.7 1121.42l155.75 11.97M3232.7 1121.42l-42.28 186.79M3232.7 1121.42l136.96 149.94M3190.42 1308.21l14.89 87.69M3205.31 1395.9l19.45 145.55M3205.31 1395.9l202.32 6.22M3224.76 1541.45l128.43 1.31M3224.76 1541.45l-178.65-81.6M3345.26-48.24l43.47 134.95M3345.26-48.24l148.09-51.39M3345.26-48.24l215.73 123.27M3388.73 86.71l-46.53 156.74M3342.2 243.45l51.39 105.24M3342.2 243.45l164.41-11.44M3393.59 348.69l111.32 4.66M3393.59 348.69l113.02-116.68M3393.59 348.69l-137.18-137.56M3393.59 348.69l101.21 170.24M3340.32 554.81l20.25 108.92M3340.32 554.81l-83.56 127.75M3340.32 554.81l154.48-35.88M3359.14 862.27l37.15 85.07M3359.14 862.27l160.57-56.72M3396.29 947.34l124.67 64.83M3396.29 947.34l-7.84 186.05M3396.29 947.34l123.42-141.79M3388.45 1133.39l103.68 25.68M3388.45 1133.39l-18.79 137.97M3369.66 1271.36l37.97 130.76M3407.63 1402.12l-54.44 140.64M3493.35-99.63l67.64 174.66M3560.99 75.03l-54.38 156.98M3560.99 75.03l-172.26 11.68M3560.99 75.03 3342.2 243.45M3506.61 232.01l-1.7 121.34M3494.8 518.93l50.39 133.83M3494.8 518.93l10.11-165.58M3494.8 518.93l-134.23 144.8M3545.19 652.76l-25.48 152.79M3545.19 652.76l-184.62 10.97M3545.19 652.76l-204.87-97.95M3519.71 805.55l1.25 206.62M3519.71 805.55l-159.14-141.82M3519.71 805.55l-24.91-286.62M3520.96 1012.17l-28.83 146.9M3520.96 1012.17l-132.51 121.22M3520.96 1012.17l-161.82-149.9M3492.13 1159.07l42.58 83.04M3492.13 1159.07l-122.47 112.29M3492.13 1159.07l-95.84-211.73M3534.71 1242.11l-165.05 29.25M3534.71 1242.11l-146.26-108.72M3534.71 1242.11l-127.08 160.01M3525.67 1572.87l-172.48-30.11M3525.67 1572.87l-118.04-170.75M3525.67 1572.87l-300.91-31.42M3525.67 1572.87l9.04-330.76M3525.67 1572.87l-156.01-301.51M3525.67 1572.87l-320.36-176.97" stroke="rgba(51, 51, 51, 1)" stroke-width="1.5"/>
        <circle r="5" cx="-39.67" cy="974.56" fill="rgba(51, 51, 51, 1)"/>
        <circle r="5" cx="-101.69" cy="1093.18" fill="rgba(51, 51, 51, 1)"/>
        <circle r="5" cx="-55.82" cy="1273.42" fill="rgba(51, 51, 51, 1)"/>
        <circle r="5" cx="-45.71" cy="1603.95" fill="rgba(51, 51, 51, 1)"/>
        <circle r="5" cx="106.18" cy="979.85" fill="rgba(51, 51, 51, 1)"/>
        <circle r="5" cx="70.57" cy="1160.06" fill="rgba(51, 51, 51, 1)"/>
        <circle r="5" cx="63.38" cy="1244.84" fill="rgba(51, 51, 51, 1)"/>
        <circle r="5" cx="59.29" cy="1394.8" fill="rgba(51, 51, 51, 1)"/>
        <circle r="5" cx="72.08" cy="1559.36" fill="rgba(51, 51, 51, 1)"/>
        <circle r="5" cx="216.92" cy="967.56" fill="rgba(51, 51, 51, 1)"/>
        <circle r="5" cx="190.74" cy="1140.68" fill="rgba(51, 51, 51, 1)"/>
        <circle r="5" cx="235.27" cy="1294.43" fill="rgba(51, 51, 51, 1)"/>
        <circle r="5" cx="189.41" cy="1434.96" fill="rgba(51, 51, 51, 1)"/>
        <circle r="5" cx="199.72" cy="1605.61" fill="rgba(51, 51, 51, 1)"/>
        <circle r="5" cx="402.91" cy="1000.66" fill="rgba(51, 51, 51, 1)"/>
        <circle r="5" cx="341.48" cy="1104.96" fill="rgba(51, 51, 51, 1)"/>
        <circle r="5" cx="353.99" cy="1303.65" fill="rgba(51, 51, 51, 1)"/>
        <circle r="5" cx="340.17" cy="1544.73" fill="rgba(51, 51, 51, 1)"/>
        <circle r="5" cx="506.67" cy="975.64" fill="rgba(51, 51, 51, 1)"/>
        <circle r="5" cx="499.15" cy="1154.86" fill="rgba(51, 51, 51, 1)"/>
        <circle r="5" cx="534.18" cy="1294.81" fill="rgba(51, 51, 51, 1)"/>
        <circle r="5" cx="512.44" cy="1550.34" fill="rgba(51, 51, 51, 1)"/>
        <circle r="5" cx="643.59" cy="953.77" fill="rgba(51, 51, 51, 1)"/>
        <circle r="5" cx="658.61" cy="1153.15" fill="rgba(51, 51, 51, 1)"/>
        <circle r="5" cx="654.82" cy="1260.97" fill="rgba(51, 51, 51, 1)"/>
        <circle r="5" cx="652.01" cy="1400.77" fill="rgba(51, 51, 51, 1)"/>
        <circle r="5" cx="670.35" cy="1542.53" fill="rgba(51, 51, 51, 1)"/>
        <circle r="5" cx="841.75" cy="791.61" fill="rgba(51, 51, 51, 1)"/>
        <circle r="5" cx="857.46" cy="964.5" fill="rgba(51, 51, 51, 1)"/>
        <circle r="5" cx="802.59" cy="1290.88" fill="rgba(51, 51, 51, 1)"/>
        <circle r="5" cx="787.6" cy="1388.16" fill="rgba(51, 51, 51, 1)"/>
        <circle r="5" cx="815.24" cy="1543.41" fill="rgba(51, 51, 51, 1)"/>
        <circle r="5" cx="982.34" cy="828.03" fill="rgba(51, 51, 51, 1)"/>
        <circle r="5" cx="990.11" cy="951.5" fill="rgba(51, 51, 51, 1)"/>
        <circle r="5" cx="958.77" cy="1156.47" fill="rgba(51, 51, 51, 1)"/>
        <circle r="5" cx="980.49" cy="1449.16" fill="rgba(51, 51, 51, 1)"/>
        <circle r="5" cx="977.28" cy="1567.03" fill="rgba(51, 51, 51, 1)"/>
        <circle r="5" cx="1117.33" cy="805.69" fill="rgba(51, 51, 51, 1)"/>
        <circle r="5" cx="1146.44" cy="999.3" fill="rgba(51, 51, 51, 1)"/>
        <circle r="5" cx="1143.79" cy="1122.52" fill="rgba(51, 51, 51, 1)"/>
        <circle r="5" cx="1159.92" cy="1305.35" fill="rgba(51, 51, 51, 1)"/>
        <circle r="5" cx="1116.81" cy="1426.09" fill="rgba(51, 51, 51, 1)"/>
        <circle r="5" cx="1121.87" cy="1549.03" fill="rgba(51, 51, 51, 1)"/>
        <circle r="5" cx="1303.57" cy="823.71" fill="rgba(51, 51, 51, 1)"/>
        <circle r="5" cx="1307.8" cy="949.06" fill="rgba(51, 51, 51, 1)"/>
        <circle r="5" cx="1296.15" cy="1099.73" fill="rgba(51, 51, 51, 1)"/>
        <circle r="5" cx="1258.39" cy="1274.57" fill="rgba(51, 51, 51, 1)"/>
        <circle r="5" cx="1286.02" cy="1388.77" fill="rgba(51, 51, 51, 1)"/>
        <circle r="5" cx="1304.08" cy="1560.27" fill="rgba(51, 51, 51, 1)"/>
        <circle r="5" cx="1413.78" cy="670.12" fill="rgba(51, 51, 51, 1)"/>
        <circle r="5" cx="1454.2" cy="992.48" fill="rgba(51, 51, 51, 1)"/>
        <circle r="5" cx="1435.97" cy="1124.57" fill="rgba(51, 51, 51, 1)"/>
        <circle r="5" cx="1450.86" cy="1256.45" fill="rgba(51, 51, 51, 1)"/>
        <circle r="5" cx="1416.15" cy="1399.82" fill="rgba(51, 51, 51, 1)"/>
        <circle r="5" cx="1431.89" cy="1598.43" fill="rgba(51, 51, 51, 1)"/>
        <circle r="5" cx="1594.17" cy="646.68" fill="rgba(51, 51, 51, 1)"/>
        <circle r="5" cx="1601.55" cy="800.42" fill="rgba(51, 51, 51, 1)"/>
        <circle r="5" cx="1558.82" cy="973.86" fill="rgba(51, 51, 51, 1)"/>
        <circle r="5" cx="1590.64" cy="1118.57" fill="rgba(51, 51, 51, 1)"/>
        <circle r="5" cx="1540.49" cy="1302.04" fill="rgba(51, 51, 51, 1)"/>
        <circle r="5" cx="1583.95" cy="1390.51" fill="rgba(51, 51, 51, 1)"/>
        <circle r="5" cx="1562.45" cy="1566.34" fill="rgba(51, 51, 51, 1)"/>
        <circle r="5" cx="1705.35" cy="519.18" fill="rgba(51, 51, 51, 1)"/>
        <circle r="5" cx="1698.46" cy="700.1" fill="rgba(51, 51, 51, 1)"/>
        <circle r="5" cx="1691.21" cy="788.4" fill="rgba(51, 51, 51, 1)"/>
        <circle r="5" cx="1694.03" cy="950.61" fill="rgba(51, 51, 51, 1)"/>
        <circle r="5" cx="1758.85" cy="1143.11" fill="rgba(51, 51, 51, 1)"/>
        <circle r="5" cx="1709.84" cy="1242.96" fill="rgba(51, 51, 51, 1)"/>
        <circle r="5" cx="1694.84" cy="1392.45" fill="rgba(51, 51, 51, 1)"/>
        <circle r="5" cx="1748.61" cy="1555.11" fill="rgba(51, 51, 51, 1)"/>
        <circle r="5" cx="1842.11" cy="537.34" fill="rgba(51, 51, 51, 1)"/>
        <circle r="5" cx="1853.85" cy="654.03" fill="rgba(51, 51, 51, 1)"/>
        <circle r="5" cx="1867.25" cy="799.19" fill="rgba(51, 51, 51, 1)"/>
        <circle r="5" cx="1864.01" cy="1006.84" fill="rgba(51, 51, 51, 1)"/>
        <circle r="5" cx="1868.96" cy="1121.94" fill="rgba(51, 51, 51, 1)"/>
        <circle r="5" cx="1846.06" cy="1275.59" fill="rgba(51, 51, 51, 1)"/>
        <circle r="5" cx="1901.83" cy="1421.49" fill="rgba(51, 51, 51, 1)"/>
        <circle r="5" cx="1875.42" cy="1609.49" fill="rgba(51, 51, 51, 1)"/>
        <circle r="5" cx="2036.04" cy="191.29" fill="rgba(51, 51, 51, 1)"/>
        <circle r="5" cx="2031.51" cy="371.64" fill="rgba(51, 51, 51, 1)"/>
        <circle r="5" cx="1996.21" cy="551.02" fill="rgba(51, 51, 51, 1)"/>
        <circle r="5" cx="2036.08" cy="641.44" fill="rgba(51, 51, 51, 1)"/>
        <circle r="5" cx="2058.24" cy="847.23" fill="rgba(51, 51, 51, 1)"/>
        <circle r="5" cx="2013.67" cy="1001.95" fill="rgba(51, 51, 51, 1)"/>
        <circle r="5" cx="2026.64" cy="1154.98" fill="rgba(51, 51, 51, 1)"/>
        <circle r="5" cx="2060.25" cy="1249.33" fill="rgba(51, 51, 51, 1)"/>
        <circle r="5" cx="2058.18" cy="1399.76" fill="rgba(51, 51, 51, 1)"/>
        <circle r="5" cx="2018.88" cy="1549.24" fill="rgba(51, 51, 51, 1)"/>
        <circle r="5" cx="2191.86" cy="-80.8" fill="rgba(51, 51, 51, 1)"/>
        <circle r="5" cx="2210.08" cy="67.99" fill="rgba(51, 51, 51, 1)"/>
        <circle r="5" cx="2197.87" cy="225.73" fill="rgba(51, 51, 51, 1)"/>
        <circle r="5" cx="2187.31" cy="362.4" fill="rgba(51, 51, 51, 1)"/>
        <circle r="5" cx="2200.62" cy="515.94" fill="rgba(51, 51, 51, 1)"/>
        <circle r="5" cx="2183.31" cy="670.98" fill="rgba(51, 51, 51, 1)"/>
        <circle r="5" cx="2144.14" cy="810.47" fill="rgba(51, 51, 51, 1)"/>
        <circle r="5" cx="2191.96" cy="1002.92" fill="rgba(51, 51, 51, 1)"/>
        <circle r="5" cx="2146.48" cy="1124.45" fill="rgba(51, 51, 51, 1)"/>
        <circle r="5" cx="2174.12" cy="1264.26" fill="rgba(51, 51, 51, 1)"/>
        <circle r="5" cx="2157.93" cy="1413.5" fill="rgba(51, 51, 51, 1)"/>
        <circle r="5" cx="2349.9" cy="-58.82" fill="rgba(51, 51, 51, 1)"/>
        <circle r="5" cx="2358.41" cy="38.46" fill="rgba(51, 51, 51, 1)"/>
        <circle r="5" cx="2342.51" cy="190.79" fill="rgba(51, 51, 51, 1)"/>
        <circle r="5" cx="2362.44" cy="394.02" fill="rgba(51, 51, 51, 1)"/>
        <circle r="5" cx="2346.56" cy="513.27" fill="rgba(51, 51, 51, 1)"/>
        <circle r="5" cx="2291.4" cy="712.13" fill="rgba(51, 51, 51, 1)"/>
        <circle r="5" cx="2347.9" cy="810.45" fill="rgba(51, 51, 51, 1)"/>
        <circle r="5" cx="2288.99" cy="1010.94" fill="rgba(51, 51, 51, 1)"/>
        <circle r="5" cx="2320.15" cy="1124.6" fill="rgba(51, 51, 51, 1)"/>
        <circle r="5" cx="2346.61" cy="1399.25" fill="rgba(51, 51, 51, 1)"/>
        <circle r="5" cx="2301.69" cy="1579.71" fill="rgba(51, 51, 51, 1)"/>
        <circle r="5" cx="2507.9" cy="-53.03" fill="rgba(51, 51, 51, 1)"/>
        <circle r="5" cx="2499.17" cy="44.64" fill="rgba(51, 51, 51, 1)"/>
        <circle r="5" cx="2466.46" cy="233.03" fill="rgba(51, 51, 51, 1)"/>
        <circle r="5" cx="2469.39" cy="361.92" fill="rgba(51, 51, 51, 1)"/>
        <circle r="5" cx="2468.07" cy="503.46" fill="rgba(51, 51, 51, 1)"/>
        <circle r="5" cx="2504.64" cy="656.16" fill="rgba(51, 51, 51, 1)"/>
        <circle r="5" cx="2464.67" cy="828.09" fill="rgba(51, 51, 51, 1)"/>
        <circle r="5" cx="2456.97" cy="1007.89" fill="rgba(51, 51, 51, 1)"/>
        <circle r="5" cx="2484.46" cy="1159.84" fill="rgba(51, 51, 51, 1)"/>
        <circle r="5" cx="2446.13" cy="1301.76" fill="rgba(51, 51, 51, 1)"/>
        <circle r="5" cx="2447.23" cy="1410.61" fill="rgba(51, 51, 51, 1)"/>
        <circle r="5" cx="2449.55" cy="1554.88" fill="rgba(51, 51, 51, 1)"/>
        <circle r="5" cx="2597.17" cy="-77.44" fill="rgba(51, 51, 51, 1)"/>
        <circle r="5" cx="2607.96" cy="79.23" fill="rgba(51, 51, 51, 1)"/>
        <circle r="5" cx="2646.37" cy="241.36" fill="rgba(51, 51, 51, 1)"/>
        <circle r="5" cx="2648.72" cy="339.48" fill="rgba(51, 51, 51, 1)"/>
        <circle r="5" cx="2594.44" cy="492.78" fill="rgba(51, 51, 51, 1)"/>
        <circle r="5" cx="2634.29" cy="860.61" fill="rgba(51, 51, 51, 1)"/>
        <circle r="5" cx="2642.71" cy="999.13" fill="rgba(51, 51, 51, 1)"/>
        <circle r="5" cx="2648.97" cy="1142.9" fill="rgba(51, 51, 51, 1)"/>
        <circle r="5" cx="2633" cy="1250.52" fill="rgba(51, 51, 51, 1)"/>
        <circle r="5" cx="2597.43" cy="1432.58" fill="rgba(51, 51, 51, 1)"/>
        <circle r="5" cx="2603.33" cy="1582.43" fill="rgba(51, 51, 51, 1)"/>
        <circle r="5" cx="2755.06" cy="-87.01" fill="rgba(51, 51, 51, 1)"/>
        <circle r="5" cx="2802.92" cy="42.12" fill="rgba(51, 51, 51, 1)"/>
        <circle r="5" cx="2754.37" cy="220.59" fill="rgba(51, 51, 51, 1)"/>
        <circle r="5" cx="2801.82" cy="385.84" fill="rgba(51, 51, 51, 1)"/>
        <circle r="5" cx="2757.55" cy="518.63" fill="rgba(51, 51, 51, 1)"/>
        <circle r="5" cx="2780.75" cy="655.47" fill="rgba(51, 51, 51, 1)"/>
        <circle r="5" cx="2798.23" cy="799.6" fill="rgba(51, 51, 51, 1)"/>
        <circle r="5" cx="2784.08" cy="961.67" fill="rgba(51, 51, 51, 1)"/>
        <circle r="5" cx="2811.22" cy="1157.5" fill="rgba(51, 51, 51, 1)"/>
        <circle r="5" cx="2807.05" cy="1291.59" fill="rgba(51, 51, 51, 1)"/>
        <circle r="5" cx="2803.42" cy="1449.6" fill="rgba(51, 51, 51, 1)"/>
        <circle r="5" cx="2744.72" cy="1594.67" fill="rgba(51, 51, 51, 1)"/>
        <circle r="5" cx="2888.02" cy="237.32" fill="rgba(51, 51, 51, 1)"/>
        <circle r="5" cx="2906.77" cy="363.58" fill="rgba(51, 51, 51, 1)"/>
        <circle r="5" cx="2898.05" cy="490.59" fill="rgba(51, 51, 51, 1)"/>
        <circle r="5" cx="2934.24" cy="643.51" fill="rgba(51, 51, 51, 1)"/>
        <circle r="5" cx="2939.32" cy="796.69" fill="rgba(51, 51, 51, 1)"/>
        <circle r="5" cx="2931.62" cy="945.35" fill="rgba(51, 51, 51, 1)"/>
        <circle r="5" cx="2912.76" cy="1140.48" fill="rgba(51, 51, 51, 1)"/>
        <circle r="5" cx="2931.33" cy="1246.73" fill="rgba(51, 51, 51, 1)"/>
        <circle r="5" cx="2905.16" cy="1419" fill="rgba(51, 51, 51, 1)"/>
        <circle r="5" cx="2921.64" cy="1604.6" fill="rgba(51, 51, 51, 1)"/>
        <circle r="5" cx="3072.82" cy="-56.6" fill="rgba(51, 51, 51, 1)"/>
        <circle r="5" cx="3080.17" cy="226" fill="rgba(51, 51, 51, 1)"/>
        <circle r="5" cx="3056.09" cy="345.49" fill="rgba(51, 51, 51, 1)"/>
        <circle r="5" cx="3048.5" cy="537" fill="rgba(51, 51, 51, 1)"/>
        <circle r="5" cx="3053.06" cy="647.28" fill="rgba(51, 51, 51, 1)"/>
        <circle r="5" cx="3060.4" cy="991.13" fill="rgba(51, 51, 51, 1)"/>
        <circle r="5" cx="3086.64" cy="1157.19" fill="rgba(51, 51, 51, 1)"/>
        <circle r="5" cx="3046.77" cy="1240.07" fill="rgba(51, 51, 51, 1)"/>
        <circle r="5" cx="3046.11" cy="1459.85" fill="rgba(51, 51, 51, 1)"/>
        <circle r="5" cx="3255.43" cy="47.67" fill="rgba(51, 51, 51, 1)"/>
        <circle r="5" cx="3256.41" cy="211.13" fill="rgba(51, 51, 51, 1)"/>
        <circle r="5" cx="3245.2" cy="409.34" fill="rgba(51, 51, 51, 1)"/>
        <circle r="5" cx="3257.38" cy="514.62" fill="rgba(51, 51, 51, 1)"/>
        <circle r="5" cx="3256.76" cy="682.56" fill="rgba(51, 51, 51, 1)"/>
        <circle r="5" cx="3195.71" cy="803.74" fill="rgba(51, 51, 51, 1)"/>
        <circle r="5" cx="3205.17" cy="943.05" fill="rgba(51, 51, 51, 1)"/>
        <circle r="5" cx="3232.7" cy="1121.42" fill="rgba(51, 51, 51, 1)"/>
        <circle r="5" cx="3190.42" cy="1308.21" fill="rgba(51, 51, 51, 1)"/>
        <circle r="5" cx="3205.31" cy="1395.9" fill="rgba(51, 51, 51, 1)"/>
        <circle r="5" cx="3224.76" cy="1541.45" fill="rgba(51, 51, 51, 1)"/>
        <circle r="5" cx="3345.26" cy="-48.24" fill="rgba(51, 51, 51, 1)"/>
        <circle r="5" cx="3388.73" cy="86.71" fill="rgba(51, 51, 51, 1)"/>
        <circle r="5" cx="3342.2" cy="243.45" fill="rgba(51, 51, 51, 1)"/>
        <circle r="5" cx="3393.59" cy="348.69" fill="rgba(51, 51, 51, 1)"/>
        <circle r="5" cx="3340.32" cy="554.81" fill="rgba(51, 51, 51, 1)"/>
        <circle r="5" cx="3360.57" cy="663.73" fill="rgba(51, 51, 51, 1)"/>
        <circle r="5" cx="3359.14" cy="862.27" fill="rgba(51, 51, 51, 1)"/>
        <circle r="5" cx="3396.29" cy="947.34" fill="rgba(51, 51, 51, 1)"/>
        <circle r="5" cx="3388.45" cy="1133.39" fill="rgba(51, 51, 51, 1)"/>
        <circle r="5" cx="3369.66" cy="1271.36" fill="rgba(51, 51, 51, 1)"/>
        <circle r="5" cx="3407.63" cy="1402.12" fill="rgba(51, 51, 51, 1)"/>
        <circle r="5" cx="3353.19" cy="1542.76" fill="rgba(51, 51, 51, 1)"/>
        <circle r="5" cx="3493.35" cy="-99.63" fill="rgba(51, 51, 51, 1)"/>
        <circle r="5" cx="3560.99" cy="75.03" fill="rgba(51, 51, 51, 1)"/>
        <circle r="5" cx="3506.61" cy="232.01" fill="rgba(51, 51, 51, 1)"/>
        <circle r="5" cx="3504.91" cy="353.35" fill="rgba(51, 51, 51, 1)"/>
        <circle r="5" cx="3494.8" cy="518.93" fill="rgba(51, 51, 51, 1)"/>
        <circle r="5" cx="3545.19" cy="652.76" fill="rgba(51, 51, 51, 1)"/>
        <circle r="5" cx="3519.71" cy="805.55" fill="rgba(51, 51, 51, 1)"/>
        <circle r="5" cx="3520.96" cy="1012.17" fill="rgba(51, 51, 51, 1)"/>
        <circle r="5" cx="3492.13" cy="1159.07" fill="rgba(51, 51, 51, 1)"/>
        <circle r="5" cx="3534.71" cy="1242.11" fill="rgba(51, 51, 51, 1)"/>
        <circle r="5" cx="3525.67" cy="1572.87" fill="rgba(51, 51, 51, 1)"/>
        <path d="m-42.18 1404.66 95.13 33.02M-42.18 1404.66l-28.63-158.23M366.93 1265.43l149.78 18.51M366.93 1265.43l-151.35 32.74M366.93 1265.43l-9.07 158.12M366.93 1265.43l-106.68 161.29M845.12 1110.01l105.36 2.2M845.12 1110.01l-52.94 144.8M845.12 1110.01l116.62 133.96M845.12 1110.01l-201.22 41.84M845.12 1110.01l-202.27 190.73M806.04 1597.56l141.45-17.74M806.04 1597.56l-149.95-138.91M806.04 1597.56l4.4-208.22M806.04 1597.56l191.21-202.99M997.25 1394.57l121.2 8.5M997.25 1394.57l-35.51-150.6M1160.28 1107.85l150.12-9.01M1160.28 1107.85l-56.3 161.4M1160.28 1107.85l100.42 178.71M1160.28 1107.85l-209.8 4.36M1103.98 1269.25l14.47 133.82M1103.98 1269.25l-142.24-25.28M1258.26 1433.87l-139.81-30.8M1258.26 1433.87l2.44-147.31M1258.26 1433.87l36.43 144.4M1258.26 1433.87l-110.66 123.8M1568.69 1150.8l-14.78 87.74M1700.33 974.56l-126.68 17.68M1700.33 974.56l142.26-5.62M1700.33 974.56l56.26 152.27M1700.33 974.56l168.41 134.3M1995.09 794.94l51.46 145.3M1995.09 794.94l-152.5 174M1995.09 794.94l196.73 213.93M1995.09 794.94l298.58-102.39M1995.09 794.94l320.25 29.74M1995.09 794.94l-126.35 313.92M2046.55 940.24l145.27 68.63M2040.33 1149.11l-12.89 125.62M2040.33 1149.11l151.25 5.17M2040.33 1149.11l133.96 111.92M2040.33 1149.11l-171.59-40.25M2040.33 1149.11l151.49-140.24M2028.95 1462.04l-127.16-49.48M2028.95 1462.04l-119.43 79.02M2191.82 1008.87l96.19-4.43M2191.82 1008.87l-.24 145.41M2293.67 692.55l21.67 132.13M2293.67 692.55l161.81-36.62M2293.67 692.55l170.27-161.18M2293.67 692.55l200.94 125.23M2293.67 692.55l161.64 249.37M2293.67 692.55l-5.66 311.89M2315.34 824.68l179.27-6.9M2315.34 824.68l-27.33 179.76M2315.34 824.68l139.97 117.24M2330.38 1111.19l-42.37-106.75M2330.38 1111.19l108.65 39.42M2330.38 1111.19l-138.8 43.09M2330.38 1111.19l28.72 159.59M2359.1 1270.78l-45.13 126.14M2359.1 1270.78l79.93-120.17M2359.1 1270.78l143.47-24.7M2359.1 1270.78l-184.81-9.75M2359.1 1270.78l103.59 157.73M2463.94 531.37l-8.46 124.56M2463.94 531.37l148.49-.73M2463.94 531.37l141.25-120.6M2502.57 1246.08l-63.54-95.47M2502.57 1246.08l150.28 47.36M2502.57 1246.08l-39.88 182.43M2502.57 1246.08l-172.19-134.89M2502.57 1246.08l119.05 208.63M2462.69 1428.51l-148.72-31.59M2462.69 1428.51l158.93 26.2M2637.45 682.56l129.77-36.84M2637.45 682.56l-25.02-151.92M2637.45 682.56l-33.11 166.29M2787.77-92.4l166.87-3.54M2787.77-92.4l103.76 153.84M2787.77-92.4l17.51 203.91M2805.28 111.51l86.25-50.07M2805.28 111.51l-66.62 106.95M2805.28 111.51l108.02 124.62M2805.28 111.51l149.36-207.45M2805.28 111.51l264.76-36.6M2954.64-95.94l149.68 56.01M2957.17 809.47l-1.85-119.67M2957.17 809.47l-64.91 145.15M2957.17 809.47l154.35 47.88M2957.17 809.47l-159.18 39.35M2957.17 809.47l101.64 198.1M2957.17 809.47l-11-247.85M2892.26 954.62l-94.27-105.8M3111.52 857.35l111.06-37.75M3111.52 857.35l121.41 98.12M3111.52 857.35l-52.71 150.22M3111.52 857.35l92.62-146.83M3111.52 857.35l-156.2-167.55M3210.65-110.49l-106.33 70.56M3210.65-110.49l176.72 35.73M3393.52 1253.18l-18.93-132.75M3393.52 1253.18l107.53-99.77M3393.52 1253.18l2.57 169.02M3393.52 1253.18l-184.45 42.62M3516.32 507.33l-15.34-117.18M3516.32 507.33l-105.23 161.36M3516.32 507.33l-118.73-159.99M3522.68 1606.19l-150.14-60.84M3522.68 1606.19l19.44-164.72M3522.68 1606.19l-126.59-183.99M-93.11 1161.94l22.3 84.49M-93.11 1161.94l193.66 136.75M-93.11 1161.94l50.93 242.72M-93.11 1161.94l146.06 275.74M-93.11 1161.94l308.69 136.23M-78.13 1567.88l154.26 37.22M-78.13 1567.88l35.95-163.22M-78.13 1567.88l131.08-130.2M-78.13 1567.88l316.08-14.13M-78.13 1567.88l7.32-321.45M100.55 1298.69l115.03-.52M100.55 1298.69l-47.6 138.99M100.55 1298.69l-142.73 105.97M100.55 1298.69l-171.36-52.26M100.55 1298.69l159.7 128.03M76.13 1605.1l-23.18-167.42M76.13 1605.1l161.82-51.35M76.13 1605.1l-118.31-200.44M215.58 1298.17l44.67 128.55M260.25 1426.72l97.61-3.17M260.25 1426.72l-22.3 127.03M260.25 1426.72l-207.3 10.96M237.95 1553.75l162.63 37.66M237.95 1553.75l119.91-130.2M237.95 1553.75l-185-116.07M237.95 1553.75l-22.37-255.58M357.86 1423.55l42.72 167.86M357.86 1423.55l-142.28-125.38M357.86 1423.55l197.24-11M400.58 1591.41l121.16-10.8M400.58 1591.41l-140.33-164.69M400.58 1591.41l154.52-178.86M400.58 1591.41l255.51-132.76M555.26 1156.87l88.64-5.02M555.26 1156.87l-38.55 127.07M516.71 1283.94l126.14 16.8M516.71 1283.94l38.39 128.61M516.71 1283.94l127.19-132.09M516.71 1283.94l-158.85 139.61M555.1 1412.55l100.99 46.1M555.1 1412.55l87.75-111.81M555.1 1412.55l-33.36 168.06M643.9 1151.85l-1.05 148.89M642.85 1300.74l149.33-45.93M656.09 1458.65l-13.24-157.91M656.09 1458.65l154.35-69.31M656.09 1458.65l-134.35 121.96M792.18 1254.81l18.26 134.53M792.18 1254.81l169.56-10.84M810.44 1389.34l186.81 5.23M810.44 1389.34l-167.59-88.6M950.48 1112.21l11.26 131.76M947.49 1579.82l49.76-185.25M947.49 1579.82l200.11-22.15M947.49 1579.82l-137.05-190.48M947.49 1579.82l170.96-176.75M1118.45 1403.07l29.15 154.6M1147.6 1557.67l147.09 20.6M1310.4 1098.84l116.69-88.11M1310.4 1098.84l143.58 57.49M1260.7 1286.56l-156.72-17.31M1260.7 1286.56l-142.25 116.51M1294.69 1578.27l159.21 32.86M1294.69 1578.27l133.97-169.88M1427.09 1010.73l146.56-18.49M1427.09 1010.73l26.89 145.6M1453.98 1156.33l114.71-5.53M1453.98 1156.33l2.18 122.68M1453.98 1156.33l99.93 82.21M1456.16 1279.01l97.75-40.47M1456.16 1279.01l-27.5 129.38M1456.16 1279.01l83.52 128.21M1456.16 1279.01l112.53-128.21M1456.16 1279.01l-195.46 7.55M1428.66 1408.39l111.02-1.17M1428.66 1408.39l-170.4 25.48M1428.66 1408.39l25.24 202.74M1428.66 1408.39l-167.96-121.83M1453.9 1611.13l127.08-5.69M1453.9 1611.13l85.78-203.91M1553.91 1238.54l-14.23 168.68M1553.91 1238.54l201.12 51.99M1539.68 1407.22l192.96-14.75M1539.68 1407.22l41.3 198.22M1580.98 1605.44l121.73-21.69M1756.59 1126.83l112.15-17.97M1756.59 1126.83l-1.56 163.7M1755.03 1290.53l103.5-10.93M1755.03 1290.53l-22.39 101.94M1755.03 1290.53l146.76 122.03M1732.64 1392.47l125.89-112.87M1702.71 1583.75l29.93-191.28M1702.71 1583.75l206.81-42.69M1702.71 1583.75l-163.03-176.53M1842.59 968.94l26.15 139.92M1842.59 968.94l-86 157.89M1842.59 968.94l203.96-28.7M1868.74 1108.86l-10.21 170.74M1858.53 1279.6l43.26 132.96M1858.53 1279.6l168.91-4.87M1901.79 1412.56l7.73 128.5M1901.79 1412.56l-169.15-20.09M1909.52 1541.06l-176.88-148.59M1909.52 1541.06l-50.99-261.46M1909.52 1541.06l272.58-87.04M2027.44 1274.73l146.85-13.7M2191.58 1154.28l-17.29 106.75M2191.58 1154.28l96.43-149.84M2191.58 1154.28l-164.14 120.45M2182.1 1454.02l131.87-57.1M2182.1 1454.02l-153.15 8.02M2182.1 1454.02l131.86 104.53M2182.1 1454.02l-7.81-192.99M2313.96 1558.55l143.44 31.98M2313.96 1558.55l.01-161.63M2313.96 1558.55l148.73-130.04M2313.96 1558.55l45.14-287.77M2313.96 1558.55l-285.01-96.51M2455.48 655.93l39.13 161.85M2455.48 655.93l181.97 26.63M2455.48 655.93l156.95-125.29M2494.61 817.78l109.73 31.07M2494.61 817.78l-39.3 124.14M2455.31 941.92l149.03-93.07M2455.31 941.92l-167.3 62.52M2457.4 1590.53l5.29-162.02M2457.4 1590.53l164.22-135.82M2457.4 1590.53l-143.43-193.61M2457.4 1590.53l-275.3-136.51M2457.4 1590.53l323.58-34.37M2605.19 410.77l7.24 119.87M2605.19 410.77l145.96-.8M2604.34 848.85l51.88 163.26M2604.34 848.85l193.65-.03M2656.22 1012.11l83.52-3.6M2656.22 1012.11l128.91 89M2652.85 1293.44l135.69 7.97M2652.85 1293.44l-31.23 161.27M2652.85 1293.44l111.21 148.27M2652.85 1293.44l-190.16 135.07M2621.62 1454.71l142.44-13M2621.62 1454.71l159.36 101.45M2738.66 218.46l174.64 17.67M2738.66 218.46l12.49 191.51M2738.66 218.46l152.87-157.02M2751.15 409.97l36.19 133.49M2751.15 409.97l-138.72 120.67M2751.15 409.97l191.56-56.98M2751.15 409.97l16.07 235.75M2787.34 543.46l-20.12 102.26M2787.34 543.46l158.83 18.16M2787.34 543.46l-174.91-12.82M2797.99 848.82l-58.25 159.69M2797.99 848.82l-30.77-203.1M2797.99 848.82l-141.77 163.29M2739.74 1008.51l45.39 92.6M2785.13 1101.11l133.36 33.64M2785.13 1101.11l107.13-146.49M2785.13 1101.11l3.41 200.3M2788.54 1301.41l-24.48 140.3M2788.54 1301.41l150.19-40.84M2788.54 1301.41l103.01 134.14M2764.06 1441.71l16.92 114.45M2764.06 1441.71l127.49-6.16M2764.06 1441.71l135.03 111.93M2780.98 1556.16l118.11-2.52M2780.98 1556.16l110.57-120.61M2891.53 61.44l63.11-157.38M2891.53 61.44l21.77 174.69M2891.53 61.44l178.51 13.47M2913.3 236.13l29.41 116.86M2913.3 236.13l142.46 11.95M2942.71 352.99l109.79 58.25M2942.71 352.99l113.05-104.91M2946.17 561.62l9.15 128.18M2946.17 561.62l165.3-48.82M2955.32 689.8l-188.1-44.08M2955.32 689.8l-167.98-146.34M2955.32 689.8l-157.33 159.02M2918.49 1134.75l20.24 125.82M2918.49 1134.75l163.44-35.65M2918.49 1134.75l-26.23-180.13M2918.49 1134.75l140.32-127.18M2938.73 1260.57l101.05 21.18M2938.73 1260.57l-47.18 174.98M2938.73 1260.57l143.2-161.47M2938.73 1260.57l-153.6-159.46M2891.55 1435.55l7.54 118.09M2899.09 1553.64l148.62 6.94M2899.09 1553.64l-110.55-252.23M2899.09 1553.64l-277.47-98.93M3104.32-39.93l-34.28 114.84M3070.04 74.91l-14.28 173.17M3070.04 74.91l-115.4-170.85M3055.76 248.08l156.76-10.76M3055.76 248.08l-3.26 163.16M3052.5 411.24l58.97 101.56M3052.5 411.24l151.18-13.77M3111.47 512.8l90.88-21.97M3111.47 512.8l92.21-115.33M3111.47 512.8l92.67 197.72M3111.47 512.8l-168.76-159.81M3058.81 1007.57l23.12 91.53M3081.93 1099.1l152.17 44.6M3081.93 1099.1l-42.15 182.65M3039.78 1281.75l169.29 14.05M3039.78 1281.75l148.73 116.11M3047.71 1560.58l180.06 24.74M3047.71 1560.58l-156.16-125.03M3047.71 1560.58l140.8-162.72M3047.71 1560.58l-266.73-4.42M3047.71 1560.58l-7.93-278.83M3212.52 237.32l-8.84 160.15M3212.52 237.32l185.07 110.02M3212.52 237.32 3070.04 74.91M3212.52 237.32 3052.5 411.24M3212.52 237.32l-10.17 253.51M3203.68 397.47l-1.33 93.36M3202.35 490.83l-149.85-79.59M3204.14 710.52l18.44 109.08M3204.14 710.52l206.95-41.83M3204.14 710.52l-1.79-219.69M3222.58 819.6l10.35 135.87M3222.58 819.6l177.91 42.04M3232.93 955.47l134.83 9.17M3232.93 955.47l-174.12 52.1M3234.1 1143.7l140.49-23.27M3234.1 1143.7l-25.03 152.1M3234.1 1143.7l-1.17-188.23M3234.1 1143.7l159.42 109.48M3209.07 1295.8l-20.56 102.06M3188.51 1397.86l39.26 187.46M3227.77 1585.32l144.77-39.97M3387.37-74.76l22.95 118.57M3387.37-74.76l171.91-.2M3387.37-74.76l108.44 184.89M3387.37-74.76l-283.05 34.83M3387.37-74.76l128.11 278.77M3410.32 43.81l85.49 66.32M3410.32 43.81l148.96-118.77M3410.32 43.81l105.16 160.2M3410.32 43.81l-199.67-154.3M3410.32 43.81l-197.8 193.51M3397.59 347.34l103.39 42.81M3397.59 347.34l117.89-143.33M3397.59 347.34l-193.91 50.13M3397.59 347.34l-195.24 143.49M3411.09 668.69l85.52 42.69M3411.09 668.69l-10.6 192.95M3400.49 861.64l-32.73 103M3400.49 861.64l144.81-22.66M3367.76 964.64l137.12 39.49M3367.76 964.64l6.83 155.79M3367.76 964.64 3222.58 819.6M3367.76 964.64l177.54-125.66M3374.59 1120.43l126.46 32.98M3396.09 1422.2l-23.55 123.15M3396.09 1422.2l146.03 19.27M3396.09 1422.2l-207.58-24.34M3372.54 1545.35l169.58-103.88M3559.28-74.96l-63.47 185.09M3559.28-74.96l-43.8 278.97M3559.28-74.96l-348.63-35.53M3495.81 110.13l19.67 93.88M3495.81 110.13l-98.22 237.21M3500.98 390.15l14.5-186.14M3500.98 390.15l-5.17-280.02M3496.61 711.38l48.69 127.6M3496.61 711.38l-96.12 150.26M3496.61 711.38l19.71-204.05M3504.88 1004.13l-3.83 149.28M3504.88 1004.13l40.42-165.15M3504.88 1004.13l-130.29 116.3M3501.05 1153.41l-133.29-188.77M3501.05 1153.41l-266.95-9.71M3501.05 1153.41l-104.96 268.79M3542.12 1441.47l-148.6-188.29M3542.12 1441.47l-41.07-288.06" stroke="hsl(0, 0%, 26%)" stroke-width="1.5"/>
        <circle r="25" cx="-42.18" cy="1404.66" fill="url(#b)"/>
        <circle r="25" cx="366.93" cy="1265.43" fill="url(#b)"/>
        <circle r="25" cx="845.12" cy="1110.01" fill="url(#b)"/>
        <circle r="25" cx="806.04" cy="1597.56" fill="url(#b)"/>
        <circle r="25" cx="997.25" cy="1394.57" fill="url(#b)"/>
        <circle r="25" cx="1160.28" cy="1107.85" fill="url(#b)"/>
        <circle r="25" cx="1103.98" cy="1269.25" fill="url(#b)"/>
        <circle r="25" cx="1258.26" cy="1433.87" fill="url(#b)"/>
        <circle r="25" cx="1568.69" cy="1150.8" fill="url(#b)"/>
        <circle r="25" cx="1700.33" cy="974.56" fill="url(#b)"/>
        <circle r="25" cx="1995.09" cy="794.94" fill="url(#b)"/>
        <circle r="25" cx="2046.55" cy="940.24" fill="url(#b)"/>
        <circle r="25" cx="2040.33" cy="1149.11" fill="url(#b)"/>
        <circle r="25" cx="2028.95" cy="1462.04" fill="url(#b)"/>
        <circle r="25" cx="2191.82" cy="1008.87" fill="url(#b)"/>
        <circle r="25" cx="2293.67" cy="692.55" fill="url(#b)"/>
        <circle r="25" cx="2315.34" cy="824.68" fill="url(#b)"/>
        <circle r="25" cx="2330.38" cy="1111.19" fill="url(#b)"/>
        <circle r="25" cx="2359.1" cy="1270.78" fill="url(#b)"/>
        <circle r="25" cx="2463.94" cy="531.37" fill="url(#b)"/>
        <circle r="25" cx="2502.57" cy="1246.08" fill="url(#b)"/>
        <circle r="25" cx="2462.69" cy="1428.51" fill="url(#b)"/>
        <circle r="25" cx="2637.45" cy="682.56" fill="url(#b)"/>
        <circle r="25" cx="2787.77" cy="-92.4" fill="url(#b)"/>
        <circle r="25" cx="2805.28" cy="111.51" fill="url(#b)"/>
        <circle r="25" cx="2954.64" cy="-95.94" fill="url(#b)"/>
        <circle r="25" cx="2957.17" cy="809.47" fill="url(#b)"/>
        <circle r="25" cx="2892.26" cy="954.62" fill="url(#b)"/>
        <circle r="25" cx="3111.52" cy="857.35" fill="url(#b)"/>
        <circle r="25" cx="3210.65" cy="-110.49" fill="url(#b)"/>
        <circle r="25" cx="3393.52" cy="1253.18" fill="url(#b)"/>
        <circle r="25" cx="3516.32" cy="507.33" fill="url(#b)"/>
        <circle r="25" cx="3522.68" cy="1606.19" fill="url(#b)"/>
        <circle r="5" cx="-93.11" cy="1161.94" fill="#999"/>
        <circle r="5" cx="-70.81" cy="1246.43" fill="#999"/>
        <circle r="5" cx="-78.13" cy="1567.88" fill="#999"/>
        <circle r="5" cx="100.55" cy="1298.69" fill="#999"/>
        <circle r="5" cx="52.95" cy="1437.68" fill="#999"/>
        <circle r="5" cx="76.13" cy="1605.1" fill="#999"/>
        <circle r="5" cx="215.58" cy="1298.17" fill="#999"/>
        <circle r="5" cx="260.25" cy="1426.72" fill="#999"/>
        <circle r="5" cx="237.95" cy="1553.75" fill="#999"/>
        <circle r="5" cx="357.86" cy="1423.55" fill="#999"/>
        <circle r="5" cx="400.58" cy="1591.41" fill="#999"/>
        <circle r="5" cx="555.26" cy="1156.87" fill="#999"/>
        <circle r="5" cx="516.71" cy="1283.94" fill="#999"/>
        <circle r="5" cx="555.1" cy="1412.55" fill="#999"/>
        <circle r="5" cx="521.74" cy="1580.61" fill="#999"/>
        <circle r="5" cx="643.9" cy="1151.85" fill="#999"/>
        <circle r="5" cx="642.85" cy="1300.74" fill="#999"/>
        <circle r="5" cx="656.09" cy="1458.65" fill="#999"/>
        <circle r="5" cx="792.18" cy="1254.81" fill="#999"/>
        <circle r="5" cx="810.44" cy="1389.34" fill="#999"/>
        <circle r="5" cx="950.48" cy="1112.21" fill="#999"/>
        <circle r="5" cx="961.74" cy="1243.97" fill="#999"/>
        <circle r="5" cx="947.49" cy="1579.82" fill="#999"/>
        <circle r="5" cx="1118.45" cy="1403.07" fill="#999"/>
        <circle r="5" cx="1147.6" cy="1557.67" fill="#999"/>
        <circle r="5" cx="1310.4" cy="1098.84" fill="#999"/>
        <circle r="5" cx="1260.7" cy="1286.56" fill="#999"/>
        <circle r="5" cx="1294.69" cy="1578.27" fill="#999"/>
        <circle r="5" cx="1427.09" cy="1010.73" fill="#999"/>
        <circle r="5" cx="1453.98" cy="1156.33" fill="#999"/>
        <circle r="5" cx="1456.16" cy="1279.01" fill="#999"/>
        <circle r="5" cx="1428.66" cy="1408.39" fill="#999"/>
        <circle r="5" cx="1453.9" cy="1611.13" fill="#999"/>
        <circle r="5" cx="1573.65" cy="992.24" fill="#999"/>
        <circle r="5" cx="1553.91" cy="1238.54" fill="#999"/>
        <circle r="5" cx="1539.68" cy="1407.22" fill="#999"/>
        <circle r="5" cx="1580.98" cy="1605.44" fill="#999"/>
        <circle r="5" cx="1756.59" cy="1126.83" fill="#999"/>
        <circle r="5" cx="1755.03" cy="1290.53" fill="#999"/>
        <circle r="5" cx="1732.64" cy="1392.47" fill="#999"/>
        <circle r="5" cx="1702.71" cy="1583.75" fill="#999"/>
        <circle r="5" cx="1842.59" cy="968.94" fill="#999"/>
        <circle r="5" cx="1868.74" cy="1108.86" fill="#999"/>
        <circle r="5" cx="1858.53" cy="1279.6" fill="#999"/>
        <circle r="5" cx="1901.79" cy="1412.56" fill="#999"/>
        <circle r="5" cx="1909.52" cy="1541.06" fill="#999"/>
        <circle r="5" cx="2027.44" cy="1274.73" fill="#999"/>
        <circle r="5" cx="2191.58" cy="1154.28" fill="#999"/>
        <circle r="5" cx="2174.29" cy="1261.03" fill="#999"/>
        <circle r="5" cx="2182.1" cy="1454.02" fill="#999"/>
        <circle r="5" cx="2288.01" cy="1004.44" fill="#999"/>
        <circle r="5" cx="2313.97" cy="1396.92" fill="#999"/>
        <circle r="5" cx="2313.96" cy="1558.55" fill="#999"/>
        <circle r="5" cx="2455.48" cy="655.93" fill="#999"/>
        <circle r="5" cx="2494.61" cy="817.78" fill="#999"/>
        <circle r="5" cx="2455.31" cy="941.92" fill="#999"/>
        <circle r="5" cx="2439.03" cy="1150.61" fill="#999"/>
        <circle r="5" cx="2457.4" cy="1590.53" fill="#999"/>
        <circle r="5" cx="2605.19" cy="410.77" fill="#999"/>
        <circle r="5" cx="2612.43" cy="530.64" fill="#999"/>
        <circle r="5" cx="2604.34" cy="848.85" fill="#999"/>
        <circle r="5" cx="2656.22" cy="1012.11" fill="#999"/>
        <circle r="5" cx="2652.85" cy="1293.44" fill="#999"/>
        <circle r="5" cx="2621.62" cy="1454.71" fill="#999"/>
        <circle r="5" cx="2738.66" cy="218.46" fill="#999"/>
        <circle r="5" cx="2751.15" cy="409.97" fill="#999"/>
        <circle r="5" cx="2787.34" cy="543.46" fill="#999"/>
        <circle r="5" cx="2767.22" cy="645.72" fill="#999"/>
        <circle r="5" cx="2797.99" cy="848.82" fill="#999"/>
        <circle r="5" cx="2739.74" cy="1008.51" fill="#999"/>
        <circle r="5" cx="2785.13" cy="1101.11" fill="#999"/>
        <circle r="5" cx="2788.54" cy="1301.41" fill="#999"/>
        <circle r="5" cx="2764.06" cy="1441.71" fill="#999"/>
        <circle r="5" cx="2780.98" cy="1556.16" fill="#999"/>
        <circle r="5" cx="2891.53" cy="61.44" fill="#999"/>
        <circle r="5" cx="2913.3" cy="236.13" fill="#999"/>
        <circle r="5" cx="2942.71" cy="352.99" fill="#999"/>
        <circle r="5" cx="2946.17" cy="561.62" fill="#999"/>
        <circle r="5" cx="2955.32" cy="689.8" fill="#999"/>
        <circle r="5" cx="2918.49" cy="1134.75" fill="#999"/>
        <circle r="5" cx="2938.73" cy="1260.57" fill="#999"/>
        <circle r="5" cx="2891.55" cy="1435.55" fill="#999"/>
        <circle r="5" cx="2899.09" cy="1553.64" fill="#999"/>
        <circle r="5" cx="3104.32" cy="-39.93" fill="#999"/>
        <circle r="5" cx="3070.04" cy="74.91" fill="#999"/>
        <circle r="5" cx="3055.76" cy="248.08" fill="#999"/>
        <circle r="5" cx="3052.5" cy="411.24" fill="#999"/>
        <circle r="5" cx="3111.47" cy="512.8" fill="#999"/>
        <circle r="5" cx="3058.81" cy="1007.57" fill="#999"/>
        <circle r="5" cx="3081.93" cy="1099.1" fill="#999"/>
        <circle r="5" cx="3039.78" cy="1281.75" fill="#999"/>
        <circle r="5" cx="3047.71" cy="1560.58" fill="#999"/>
        <circle r="5" cx="3212.52" cy="237.32" fill="#999"/>
        <circle r="5" cx="3203.68" cy="397.47" fill="#999"/>
        <circle r="5" cx="3202.35" cy="490.83" fill="#999"/>
        <circle r="5" cx="3204.14" cy="710.52" fill="#999"/>
        <circle r="5" cx="3222.58" cy="819.6" fill="#999"/>
        <circle r="5" cx="3232.93" cy="955.47" fill="#999"/>
        <circle r="5" cx="3234.1" cy="1143.7" fill="#999"/>
        <circle r="5" cx="3209.07" cy="1295.8" fill="#999"/>
        <circle r="5" cx="3188.51" cy="1397.86" fill="#999"/>
        <circle r="5" cx="3227.77" cy="1585.32" fill="#999"/>
        <circle r="5" cx="3387.37" cy="-74.76" fill="#999"/>
        <circle r="5" cx="3410.32" cy="43.81" fill="#999"/>
        <circle r="5" cx="3397.59" cy="347.34" fill="#999"/>
        <circle r="5" cx="3411.09" cy="668.69" fill="#999"/>
        <circle r="5" cx="3400.49" cy="861.64" fill="#999"/>
        <circle r="5" cx="3367.76" cy="964.64" fill="#999"/>
        <circle r="5" cx="3374.59" cy="1120.43" fill="#999"/>
        <circle r="5" cx="3396.09" cy="1422.2" fill="#999"/>
        <circle r="5" cx="3372.54" cy="1545.35" fill="#999"/>
        <circle r="5" cx="3559.28" cy="-74.96" fill="#999"/>
        <circle r="5" cx="3495.81" cy="110.13" fill="#999"/>
        <circle r="5" cx="3515.48" cy="204.01" fill="#999"/>
        <circle r="5" cx="3500.98" cy="390.15" fill="#999"/>
        <circle r="5" cx="3496.61" cy="711.38" fill="#999"/>
        <circle r="5" cx="3545.3" cy="838.98" fill="#999"/>
        <circle r="5" cx="3504.88" cy="1004.13" fill="#999"/>
        <circle r="5" cx="3501.05" cy="1153.41" fill="#999"/>
        <circle r="5" cx="3542.12" cy="1441.47" fill="#999"/>
    </g>
    <defs>
        <radialGradient id="b">
            <stop stop-color="#fff" offset=".1"/>
            <stop stop-color="rgba(51, 51, 51, 1)" offset=".2"/>
            <stop stop-color="rgba(51, 51, 51, 0)" offset="1"/>
        </radialGradient>
        <mask id="a">
            <path fill="#fff" d="M0 0h3440v1440H0z"/>
        </mask>
    </defs>
</svg>